<svg width="195" height="64" fill="none" xmlns="http://www.w3.org/2000/svg"><path fill="#fff" d="M0 0h195v64H0z"/><g clip-path="url(#clip0)"><path d="M11.15 19.96V43.8c0 .93.43 1.85 1.27 2.45L32.1 60.08a5.13 5.13 0 005.9 0l19.66-13.82a2.97 2.97 0 001.3-2.44l-.02-23.87H11.15z" fill="#29CE69"/><path d="M58.93 33.49L38 48.15c-.88.62-1.92.93-2.95.93V19.96h23.88v13.53z" fill="#5AD6FF"/><path d="M38 48.15l10.1-7.08v11.91L38 60.08c-.88.62-1.92.93-2.95.93V49.08c1.03 0 2.07-.31 2.95-.93z" fill="#FD5C6F"/><path d="M48.1 41.07L38 48.15c-.88.62-1.92.93-2.95.93V19.96H48.1v21.11z" fill="#F4E74D"/><path d="M35.05 19.96h-23.9V43.8c0 .93.43 1.85 1.27 2.45L32.1 60.08c.89.62 1.92.93 2.96.93V19.96z" fill="#5AD6FF"/><path d="M11.15 33.48L32.1 48.15c.89.62 1.92.93 2.96.93V19.96h-23.9v13.52z" fill="#29CE69"/><path d="M22 19.96v33.02l10.1 7.1c.88.62 1.91.93 2.95.93V19.96H21.99z" fill="#FFCD00"/><path d="M32.1 3.69L12.42 17.5a3 3 0 000 4.9l19.66 13.82a5.13 5.13 0 005.9 0L57.65 22.4a3 3 0 000-4.9L38 3.7a5.13 5.13 0 00-5.9 0z" fill="#FF8A98"/><path d="M32.1 48.15L22 41.07v11.91l10.1 7.1c.88.62 1.91.93 2.95.93V49.08c-1.04 0-2.07-.31-2.96-.93z" fill="#F6334C"/><path d="M22 41.07l10.1 7.08c.88.62 1.91.93 2.95.93V19.96H21.99v21.11z" fill="#EEDB00"/><path d="M57.65 22.4a3 3 0 000-4.9l-1.99-1.4-7.57-5.31L22 29.12l10.1 7.1a5.13 5.13 0 005.9 0l17.74-12.47 1.92-1.35z" fill="#A4E7FF"/><path d="M48.09 29.12L21.99 10.8l-9.56 6.71a3 3 0 000 4.9l2.9 2.05L32.1 36.22a5.13 5.13 0 005.9 0l.4-.28 9.7-6.82z" fill="#73DA8C"/><path d="M35.04 19.96l-13.05 9.16 1 .7 9.1 6.4a5.13 5.13 0 005.9 0l10.1-7.1-13.05-9.16z" fill="#F9EE80"/><path d="M59.8 19.95c0-1.26-.61-2.44-1.64-3.16L41.27 4.92c-.4-.28 2.17 2 1.89 2.4-.28.4-3.3-1.24-2.9-.96l6.3 4.43-11.52 8.1-11.52-8.1L32.6 4.4a4.26 4.26 0 014.88 0l2.78 1.95c.4.28 3.76 2.16 4.04 1.76.27-.4-2.63-2.92-3.03-3.2L38.5 2.97a6.02 6.02 0 00-6.9 0L11.92 16.8a3.88 3.88 0 00-1.65 3.16v23.86c0 1.26.62 2.45 1.65 3.17l19.67 13.81a6 6 0 006.9 0l19.67-13.81a3.87 3.87 0 001.66-3.16l-.01-23.87zm-11.7-8.09l9.05 6.36c.57.4.9 1.04.9 1.73 0 .7-.33 1.33-.9 1.73l-9.06 6.37-11.52-8.1 11.52-8.09zM12.02 23.2l9.08 6.38v9.8l-9.08-6.35V23.2zM32.6 35.5l-9.08-6.38 11.52-8.09 11.52 8.1-9.08 6.37a4.26 4.26 0 01-4.88 0zm-9.73-4.69l8.72 6.13c.78.55 1.67.89 2.58 1.02v10.15a4.23 4.23 0 01-1.57-.69l-9.73-6.8v-9.8zm13.06 7.15c.9-.13 1.78-.48 2.56-1.02l8.72-6.13v9.82l-9.71 6.8c-.48.33-1.01.56-1.57.68V37.96zm-23-19.74l9.06-6.36 11.52 8.1L22 28.05l-9.06-6.37c-.57-.4-.9-1.03-.9-1.73s.33-1.32.9-1.73zm0 27.32c-.57-.4-.9-1.03-.9-1.73v-8.64l9.08 6.36v9.95c0 .49-.07.56.42.56s1.06.93 1.06.44l.28-9.72 8.72 6.1c.77.55 1.65.9 2.58 1.03v10.14a4.23 4.23 0 01-1.57-.67L12.93 45.54zm24.55 13.82c-.47.33-1 .55-1.55.67V49.9c.92-.13 1.8-.48 2.58-1.02l8.7-6.1v9.75l-9.73 6.84zm19.67-13.82l-8.18 5.75v-9.75l7.77-5.45c.4-.27 1.6-1.47 1.32-1.86-.28-.4-1.93.15-2.32.43l-6.77 4.73v-9.81l9.08-6.38v9.83l-2.31 1.63c-.4.27-2.54 2.12-2.26 2.52.17.24 2.73-.75 3.26-1.09l1.32-.91v8.64c0 .69-.33 1.31-.91 1.72z" fill="#000"/></g><path d="M74.3 33.88l1.57-2 3.67-3.98h4.03l-5.2 5.68L83.87 41h-4.12l-3.78-5.3-1.53 1.22V41h-3.58V22.77h3.58v8.13l-.19 2.98h.05zM93.07 27.65c.48 0 .89.04 1.2.1l-.26 3.36a4.1 4.1 0 00-1.06-.12c-1.14 0-2.03.3-2.67.88-.63.59-.95 1.4-.95 2.46V41h-3.57V27.9h2.7l.53 2.2h.18a4.9 4.9 0 011.64-1.77c.7-.45 1.45-.68 2.26-.68zM102.08 30.2c-.76 0-1.35.24-1.78.72a3.3 3.3 0 00-.74 2.04h5.02a2.96 2.96 0 00-.7-2.04 2.33 2.33 0 00-1.8-.72zm.5 11.03c-2.1 0-3.75-.58-4.94-1.74-1.19-1.17-1.78-2.81-1.78-4.95 0-2.2.55-3.89 1.64-5.08a5.87 5.87 0 014.56-1.8c1.85 0 3.3.52 4.32 1.57 1.03 1.06 1.55 2.52 1.55 4.38v1.73h-8.45c.04 1.02.34 1.8.9 2.38.56.57 1.35.85 2.37.85a9.82 9.82 0 004.44-1.03v2.77c-.62.31-1.3.54-2 .69-.71.16-1.58.23-2.6.23zM114.98 41.23c-1.54 0-2.75-.6-3.63-1.79-.87-1.2-1.31-2.85-1.31-4.97 0-2.15.44-3.82 1.33-5.01.9-1.2 2.14-1.8 3.7-1.8 1.66 0 2.91.63 3.78 1.91h.12c-.18-.97-.27-1.84-.27-2.6v-4.2h3.58V41h-2.74l-.69-1.7h-.15a4.09 4.09 0 01-3.72 1.93zm1.26-2.84c.91 0 1.58-.27 2-.8.43-.53.67-1.43.7-2.7v-.4c0-1.4-.21-2.4-.65-3.02-.43-.6-1.13-.91-2.11-.91-.8 0-1.42.34-1.86 1.02a5.42 5.42 0 00-.66 2.94c0 1.29.22 2.26.67 2.9.44.65 1.08.97 1.9.97zM125.87 24.51c0-1.16.65-1.74 1.95-1.74 1.3 0 1.94.58 1.94 1.74 0 .56-.16.99-.49 1.3-.32.3-.8.46-1.45.46-1.3 0-1.95-.59-1.95-1.76zM129.6 41h-3.58V27.9h3.58V41zM138.88 38.39c.62 0 1.37-.14 2.25-.41v2.66c-.9.4-1.98.6-3.28.6-1.43 0-2.47-.37-3.13-1.08-.65-.73-.97-1.82-.97-3.26v-6.32h-1.72v-1.51l1.97-1.2 1.03-2.76h2.29v2.79h3.67v2.68h-3.67v6.32c0 .5.14.88.42 1.12.3.25.67.37 1.14.37zM146.64 34.43c0 1.3.2 2.27.63 2.94.43.66 1.13 1 2.08 1 .96 0 1.64-.33 2.06-1 .42-.66.63-1.64.63-2.94s-.21-2.27-.63-2.92c-.43-.65-1.12-.97-2.08-.97-.95 0-1.64.32-2.06.97a5.37 5.37 0 00-.63 2.92zm9.06 0c0 2.13-.57 3.8-1.7 5-1.12 1.2-2.68 1.8-4.7 1.8a6.61 6.61 0 01-3.32-.82 5.53 5.53 0 01-2.21-2.37 7.97 7.97 0 01-.78-3.61c0-2.14.56-3.8 1.68-5 1.12-1.18 2.69-1.78 4.7-1.78 1.27 0 2.38.28 3.34.82.96.55 1.7 1.33 2.21 2.36a7.9 7.9 0 01.78 3.6zM158.15 39.32c0-.65.17-1.15.52-1.48.35-.34.87-.5 1.54-.5.64 0 1.14.16 1.5.5.36.35.54.84.54 1.48 0 .62-.18 1.11-.54 1.47-.36.35-.86.53-1.5.53-.66 0-1.17-.18-1.53-.52a1.97 1.97 0 01-.53-1.48zM164.44 46.77c-.92 0-1.7-.1-2.36-.3v-2.81c.55.15 1.1.22 1.68.22.6 0 1.04-.17 1.31-.5.28-.34.42-.83.42-1.49v-14h3.58v14.53c0 1.39-.4 2.46-1.21 3.2a4.8 4.8 0 01-3.42 1.15zm.9-22.26c0-1.16.65-1.74 1.94-1.74 1.3 0 1.95.58 1.95 1.74 0 .56-.16.99-.5 1.3-.31.3-.8.46-1.44.46-1.3 0-1.95-.59-1.95-1.76zM181.97 37.1a3.6 3.6 0 01-1.4 3.08c-.94.7-2.33 1.05-4.2 1.05-.94 0-1.76-.06-2.43-.2a8.99 8.99 0 01-1.88-.56v-2.95a12.5 12.5 0 004.44 1.1c1.3 0 1.94-.37 1.94-1.12 0-.29-.09-.51-.26-.68a3.52 3.52 0 00-.89-.6c-.42-.23-.98-.49-1.69-.79-1-.42-1.75-.8-2.22-1.17a3.38 3.38 0 01-1.03-1.23 4.19 4.19 0 01-.32-1.72 3.1 3.1 0 011.35-2.7c.9-.64 2.19-.96 3.84-.96 1.58 0 3.12.35 4.6 1.03l-1.07 2.58c-.66-.28-1.27-.51-1.84-.69a5.77 5.77 0 00-1.75-.27c-1.05 0-1.58.29-1.58.86 0 .32.17.6.5.83.35.23 1.1.58 2.24 1.04 1.03.42 1.78.8 2.25 1.16.48.36.83.77 1.06 1.24.22.47.34 1.03.34 1.68z" fill="#000"/><defs><clipPath id="clip0"><path fill="#fff" transform="translate(5 2)" d="M0 0h60v60H0z"/></clipPath></defs></svg>